<!DOCTYPE svg PUBLIC "-//W3C//DTD SVG 1.1//EN" "http://www.w3.org/Graphics/SVG/1.1/DTD/svg11.dtd">
<!-- Uploaded to: SVG Repo, www.svgrepo.com, Transformed by: SVG Repo Mixer Tools -->
<svg fill="#000000" height="800px" width="800px" version="1.1" id="Layer_1" xmlns="http://www.w3.org/2000/svg" xmlns:xlink="http://www.w3.org/1999/xlink" viewBox="0 0 512.00 512.00" xml:space="preserve" stroke="#000000" stroke-width="0.00512">
<g id="SVGRepo_bgCarrier" stroke-width="0"/>
<g id="SVGRepo_tracerCarrier" stroke-linecap="round" stroke-linejoin="round"/>
<g id="SVGRepo_iconCarrier"> <g> <g> <path d="M452.764,114.992c-41.533-31.914-102.814-48.782-177.217-48.782c-66.002,0-131.903,13.378-180.807,36.703 C32.76,132.477,0,176.341,0,229.765c0,0.833,0,48.762,0,48.762c0,28.969,10.989,55.445,30.941,74.552 c21.222,20.323,50.837,31.064,85.644,31.064c7.205,0,14.437-0.583,21.497-1.732c38.014-6.192,78.18,4.463,110.192,29.232 c28.87,22.338,63.47,34.146,100.06,34.146c90.246,0,163.666-73.42,163.666-163.666c0.001,0,0.001-47.869,0.001-48.763 C512,186.381,490.963,144.343,452.764,114.992z M348.333,424.894c-31.918,0-62.096-10.296-87.272-29.777 c-36.578-28.3-82.626-40.448-126.338-33.331c-5.954,0.97-12.057,1.461-18.139,1.461c-57.412,0-87.273-32.1-94.134-68.169 c2.618,3.238,5.449,6.324,8.491,9.238c21.222,20.323,50.837,31.064,85.644,31.064c7.205,0,14.437-0.583,21.497-1.732 c38.014-6.194,78.18,4.463,110.192,29.233c28.87,22.338,63.47,34.146,100.06,34.146c57.096,0,107.447-29.395,136.742-73.84 C467.393,381.957,412.788,424.894,348.333,424.894z M348.334,376.132c-31.918,0-62.096-10.296-87.272-29.777 c-29.717-22.992-65.682-35.323-101.57-35.323c-8.285,0-16.568,0.657-24.768,1.992c-5.954,0.97-12.057,1.461-18.139,1.461 c-66.101,0-95.689-42.551-95.689-84.72c0-56.598,45.049-89.965,82.841-107.99c46.191-22.031,108.814-34.668,171.811-34.668 c69.758,0,126.636,15.373,164.486,44.455c33.411,25.673,51.072,60.875,51.072,101.8 C491.104,312.086,427.057,376.132,348.334,376.132z"/> </g> </g> <g> <g> <path d="M371.814,194.471c-20.121-15.337-51.646-15.337-71.768,0c-10.393,7.923-16.355,19.16-16.355,30.832 s5.959,22.912,16.354,30.833c9.699,7.392,22.572,11.469,35.898,11.468c1.541,0,3.088-0.054,4.637-0.165 c5.756-0.41,10.089-5.407,9.68-11.163c-0.41-5.756-5.399-10.086-11.163-9.68c-9.933,0.703-19.554-1.873-26.384-7.078 c-5.241-3.994-8.126-9.042-8.126-14.214c0-5.173,2.886-10.22,8.126-14.214c12.585-9.592,33.85-9.592,46.435,0 c5.191,3.957,8.076,8.957,8.125,14.082c0.054,5.737,4.721,10.35,10.446,10.35c0.033,0,0.067,0,0.1,0 c5.769-0.054,10.404-4.776,10.349-10.546C388.057,213.257,382.248,202.424,371.814,194.471z"/> </g> </g> <g> <g> <path d="M373.783,241.486c-3.501-4.585-10.058-5.463-14.645-1.962l-0.085,0.065c-4.586,3.502-5.464,10.058-1.962,14.645 c2.056,2.692,5.165,4.107,8.311,4.107c2.211,0,4.44-0.699,6.333-2.145l0.085-0.065 C376.407,252.628,377.285,246.072,373.783,241.486z"/> </g> </g> <g> <g> <path d="M248.544,127.804c-0.438-5.753-5.463-10.056-11.211-9.625c-49.632,3.779-95.195,15.206-128.295,32.175 c-41.93,21.497-64.093,51.779-64.093,87.57c-0.001,5.77,4.676,10.448,10.447,10.448s10.448-4.677,10.448-10.448 c0-63.279,93.236-92.832,173.079-98.91C244.674,138.576,248.982,133.556,248.544,127.804z"/> </g> </g> <g> <g> <path d="M271.875,116.849c-5.77,0-10.448,4.677-10.448,10.448c0,5.77,4.677,10.448,10.448,10.448h0.094 c5.77,0,10.401-4.677,10.401-10.448C282.37,121.527,277.646,116.849,271.875,116.849z"/> </g> </g> </g>
</svg>